<svg id="Layer_1" data-name="Layer 1" xmlns="http://www.w3.org/2000/svg" viewBox="0 0 602.04255 138.89362">
  <defs>
    <style>
      .cls-1 {
        fill: none;
      }

      .cls-2 {
        fill: #1e4382;
      }

      .cls-3 {
        fill: #808285;
      }
    </style>
  </defs>
  <rect class="cls-1" width="602.04255" height="138.89362"/>
  <g>
    <g>
      <polygon class="cls-2" points="87.393 24.798 87.393 15.697 79.51 11.146 71.628 15.697 71.628 24.798 79.51 29.349 87.393 24.798"/>
      <polygon class="cls-2" points="33.459 24.798 33.459 15.697 25.577 11.146 17.695 15.697 17.695 24.798 25.577 29.349 33.459 24.798"/>
      <polygon class="cls-2" points="105.093 25.839 91.127 17.773 91.127 24.796 99.011 29.351 105.093 25.839"/>
      <path class="cls-2" d="M81.51237,41.59663l7.894,4.54412,7.87383-4.54412V32.49824L89.40641,27.944l-7.894,4.55425Zm2.32772-7.7624,5.56632-3.21852,5.55624,3.21852v6.42641L89.40641,43.469l-5.56632-3.20839Z"/>
      <path class="cls-2" d="M97.28024,74.73136V65.633l-7.87383-4.55426-7.894,4.55426v9.09838l7.894,4.55426Zm-12.0637-6.96308,4.18987-2.42884,4.1798,2.42884v4.82753l-4.1798,2.41895-4.18987-2.41895Z"/>
      <path class="cls-2" d="M57.44365,42.08363l14.181,7.692v8.16564l7.8839,4.54412,7.8839-4.54412V48.83273l-7.8839-4.55425L72.46458,48.347l-.00148.001L58.28566,40.65771V32.49824l-7.80292-4.51373-.081-.04052-7.8839,4.55425v9.09839l7.8839,4.54412Zm22.20657,4.877,5.56632,3.20814v6.42641l-5.56632,3.20839-5.56631-3.20839V50.18181l.00278-.00494v-.0084l.001-.002ZM46.30294,34.67407l4.09881-2.35793,4.09882,2.35793v4.73636l-4.09882,2.3683-4.09881-2.3683Z"/>
      <polygon class="cls-2" points="101.019 41.595 108.901 46.146 116.783 41.595 116.783 32.494 108.901 27.943 101.019 32.494 101.019 41.595"/>
      <path class="cls-2" d="M53.023,60.02614v9.10852l7.8839,4.54412,7.8839-4.54412V60.02614L60.90691,55.482,53.863,59.54038Zm2.45929,1.336,5.56631-3.20839,5.56632,3.20839v6.42641l-5.56632,3.20839L55.4823,67.78854Z"/>
      <path class="cls-2" d="M28.48063,48.83273l-.01013-.01013-7.884-4.54412L13.55279,48.347l-.84.48576v9.09839l7.87377,4.55425,7.884-4.54412.01013-.01013Zm-2.176,7.75252-5.57644,3.21827-5.55618-3.21827V50.16872l5.55618-3.20814,5.57644,3.20814Z"/>
      <polygon class="cls-2" points="71.628 81.97 71.628 91.072 79.51 95.623 87.393 91.072 87.393 81.97 79.51 77.42 71.628 81.97"/>
      <polygon class="cls-2" points="71.628 115.691 71.628 124.793 79.51 129.344 87.393 124.793 87.393 115.691 79.51 111.14 71.628 115.691"/>
      <polygon class="cls-2" points="97.281 98.767 89.399 94.216 81.517 98.767 81.517 107.869 89.399 112.419 97.281 107.869 97.281 98.767"/>
      <polygon class="cls-2" points="100.65 99.009 100.65 108.111 108.532 112.662 116.415 108.111 116.415 99.009 108.532 94.458 100.65 99.009"/>
      <polygon class="cls-2" points="119.647 99.588 119.647 106.247 130.83 99.79 130.83 96.946 127.521 95.043 119.647 99.588"/>
      <polygon class="cls-2" points="91.127 115.689 91.127 122.713 105.093 114.647 99.011 111.145 91.127 115.689"/>
      <polygon class="cls-2" points="54.065 114.576 67.89 122.551 67.89 115.689 60.006 111.145 54.065 114.576"/>
      <polygon class="cls-2" points="119.647 65.694 119.647 74.792 127.521 79.346 130.83 77.433 130.83 63.052 127.521 61.14 119.647 65.694"/>
      <polygon class="cls-2" points="129.524 91.744 130.83 92.503 130.83 81.887 129.524 82.646 129.524 91.744"/>
      <polygon class="cls-2" points="129.524 57.931 130.83 58.69 130.83 48.084 129.524 48.833 129.524 57.931"/>
      <polygon class="cls-2" points="119.647 34.239 119.647 41.273 127.521 45.817 130.83 43.914 130.83 40.696 119.647 34.239"/>
      <polygon class="cls-2" points="126.394 82.645 118.512 78.094 110.63 82.645 110.63 91.747 118.512 96.298 126.394 91.747 126.394 82.645"/>
      <polygon class="cls-2" points="77.781 98.767 69.899 94.216 62.016 98.767 62.016 107.869 69.899 112.419 77.781 107.869 77.781 98.767"/>
      <path class="cls-2" d="M106.89478,57.94125V48.83273l-7.8839-4.55425-7.884,4.55425v9.10852l7.884,4.54412ZM94.0619,50.52279l4.949-2.85382,4.94891,2.85382v5.71827l-4.94891,2.8642-4.949-2.8642Z"/>
      <path class="cls-2" d="M126.39713,57.94125V48.83273L118.503,44.27848l-7.87377,4.55425v9.10852l7.87377,4.54412Zm-10.323-5.96091,2.4289-1.417,2.44922,1.417v2.81355L118.503,56.19041l-2.4289-1.39652Z"/>
      <path class="cls-2" d="M116.78259,74.73136V65.633l-7.884-4.55426-7.8839,4.55426v9.09838l7.8839,4.55426Zm-11.55773-6.66954,3.67377-2.12518,3.67377,2.12518v4.24045l-3.67377,2.12542-3.67377-2.12542Z"/>
      <polygon class="cls-2" points="58.281 99.009 50.398 94.458 42.516 99.009 42.516 108.111 50.398 112.662 58.281 108.111 58.281 99.009"/>
      <polygon class="cls-2" points="28.471 96.153 28.471 99.786 39.29 106.03 39.29 99.007 31.406 94.463 28.471 96.153"/>
      <path class="cls-2" d="M28.48063,78.233l5.10074,2.945,2.48969,1.43729.29347.172,6.70994-3.86612.334-.20237.00093-.00049,8.71916,4.61306V91.072l7.88224,4.55079L67.893,91.072v-9.1016L60.0108,77.41964l-7.41463,4.28073-8.35781-4.42182V69.13466L36.36453,64.5804l-.29347.16209-2.48969,1.44717-5.10074,2.945Zm4.0583-6.75034,1.04244-.60734,2.48969-1.42691.29347-.172L40.18,71.4827V75.885l-3.81547,2.20646-.29347-.16209L33.58137,76.4822l-1.04244-.5972Z"/>
      <path class="cls-2" d="M106.89478,91.06585V81.96747l-7.8839-4.54413-7.884,4.54413v9.09838l7.884,4.55425ZM95.17514,84.30538,99.01088,82.089l3.83567,2.21635v4.43294l-3.83567,2.21634-3.83574-2.21634Z"/>
    </g>
    <g>
      <path class="cls-3" d="M431.17334,53.46964h-3.67958l-.69826,1.64657h-1.28236l3.221-7.29689h1.26111l3.18986,7.29689h-1.3135Zm-.469-1.09508-1.37625-3.24174-1.37577,3.24174Z"/>
      <path class="cls-3" d="M438.784,55.11621l-1.33426-2.20992a3.31463,3.31463,0,0,1-.33356.01087h-1.73008v2.199h-1.23V47.81932h2.96007c1.866,0,2.93981.90729,2.93981,2.4916a2.34338,2.34338,0,0,1-1.51166,2.36607l1.63668,2.43922Zm-1.66782-3.304c1.12572,0,1.77209-.47934,1.77209-1.46966,0-.95967-.64637-1.41826-1.77209-1.41826h-1.73008V51.8122Z"/>
      <path class="cls-3" d="M444.94581,48.88277a2.56993,2.56993,0,1,0,0,5.13935,3.017,3.017,0,0,0,2.03252-.86578l.72989.8134a4.14407,4.14407,0,0,1-2.82517,1.19885,3.69207,3.69207,0,1,1,.042-7.37991,4.02666,4.02666,0,0,1,2.77278,1.12572l-.71951.89642A2.8501,2.8501,0,0,0,444.94581,48.88277Z"/>
      <path class="cls-3" d="M456.63191,47.81932v1.105h-2.3137v6.19193h-1.23V48.92428h-2.30382v-1.105Z"/>
      <path class="cls-3" d="M462.31386,55.11621l-1.33426-2.20992a3.31463,3.31463,0,0,1-.33356.01087H458.916v2.199h-1.23V47.81932H460.646c1.866,0,2.93981.90729,2.93981,2.4916a2.34338,2.34338,0,0,1-1.51167,2.36607l1.63669,2.43922Zm-1.66782-3.304c1.12571,0,1.77209-.47934,1.77209-1.46966,0-.95967-.64638-1.41826-1.77209-1.41826H458.916V51.8122Z"/>
      <path class="cls-3" d="M469.93542,53.46964h-3.67958l-.69826,1.64657h-1.28237l3.221-7.29689h1.26112l3.18986,7.29689h-1.3135Zm-.469-1.09508-1.37626-3.24174-1.37576,3.24174Z"/>
      <path class="cls-3" d="M474.14771,47.81932v7.29689h-1.23V47.81932Z"/>
      <path class="cls-3" d="M477.27481,47.81932l3.90936,5.24411V47.81932h1.20923v7.29689h-1.20923L477.29605,49.884v5.23226h-1.23V47.81932Z"/>
      <path class="cls-3" d="M485.55311,47.81932v7.29689h-1.23V47.81932Z"/>
      <path class="cls-3" d="M488.68021,47.81932l3.90937,5.24411V47.81932h1.20923v7.29689h-1.20923L488.70146,49.884v5.23226h-1.23V47.81932Z"/>
      <path class="cls-3" d="M500.72161,51.53052H501.795v2.68927a4.94266,4.94266,0,0,1-2.835.9488,3.69443,3.69443,0,1,1,.07265-7.37991,4.38536,4.38536,0,0,1,2.8044,1.02095l-.69875.9073a3.173,3.173,0,0,0-2.10565-.83416,2.59143,2.59143,0,1,0,.01037,5.18086,3.40476,3.40476,0,0,0,1.67869-.5001Z"/>
      <path class="cls-3" d="M509.47927,48.88277a2.56993,2.56993,0,1,0,0,5.13935,3.01694,3.01694,0,0,0,2.03251-.86578l.72989.8134a4.14407,4.14407,0,0,1-2.82516,1.19885,3.69207,3.69207,0,1,1,.042-7.37991,4.02666,4.02666,0,0,1,2.77278,1.12572l-.71951.89642A2.85007,2.85007,0,0,0,509.47927,48.88277Z"/>
      <path class="cls-3" d="M518.7049,47.81932v1.105h-3.98152V50.895h3.56493V52h-3.56493v2.01127h4.107v1.105h-5.337V47.81932Z"/>
      <path class="cls-3" d="M521.54142,47.81932l3.90937,5.24411V47.81932H526.66v7.29689h-1.20923L521.56267,49.884v5.23226h-1.23V47.81932Z"/>
      <path class="cls-3" d="M533.572,47.81932v1.105h-2.31369v6.19193h-1.23V48.92428h-2.30381v-1.105Z"/>
      <path class="cls-3" d="M539.2539,55.11621l-1.33425-2.20992a3.31483,3.31483,0,0,1-.33357.01087H535.856v2.199h-1.23V47.81932h2.96007c1.866,0,2.93981.90729,2.93981,2.4916a2.34337,2.34337,0,0,1-1.51166,2.36607l1.63668,2.43922Zm-1.66782-3.304c1.12572,0,1.77209-.47934,1.77209-1.46966,0-.95967-.64637-1.41826-1.77209-1.41826H535.856V51.8122Z"/>
      <path class="cls-3" d="M547.37556,47.81932v1.105h-3.982V50.895h3.56493V52h-3.56493v2.01127h4.107v1.105h-5.337V47.81932Z"/>
      <path class="cls-3" d="M552.9221,47.81932v7.29689h-1.23V47.81932Z"/>
      <path class="cls-3" d="M556.05019,47.81932l3.90887,5.24411V47.81932h1.20923v7.29689h-1.20923L556.071,49.884v5.23226h-1.23V47.81932Z"/>
      <path class="cls-3" d="M433.5918,63.97863a3.87215,3.87215,0,1,1-3.86736-3.67958A3.73362,3.73362,0,0,1,433.5918,63.97863Zm-6.484,0a2.61668,2.61668,0,0,0,2.627,2.59636,2.58582,2.58582,0,1,0-2.627-2.59636Z"/>
      <path class="cls-3" d="M440.70239,62.82227c0,1.64657-1.05307,2.60526-2.88743,2.60526h-1.67819v2.2h-1.23V60.33067H437.815C439.64932,60.33067,440.70239,61.238,440.70239,62.82227Zm-1.1781.03064c0-.95869-.636-1.41728-1.76171-1.41728h-1.62581v2.88694h1.62581C438.8883,64.32257,439.52429,63.84322,439.52429,62.85291Z"/>
      <path class="cls-3" d="M446.90519,60.33067v1.105H444.5915v6.19193h-1.23V61.43563H441.0577v-1.105Z"/>
      <path class="cls-3" d="M449.18924,60.33067v7.29689h-1.23V60.33067Z"/>
      <path class="cls-3" d="M452.56688,60.33067l2.40759,4.84681,2.3977-4.84681h1.4489v7.29689H457.685l-.01038-5.45166-2.30381,4.69065h-.80253l-2.30381-4.69065v5.45166H451.1076V60.33067Z"/>
      <path class="cls-3" d="M461.98128,60.33067v7.29689h-1.23V60.33067Z"/>
      <path class="cls-3" d="M466.203,61.43563c-.719,0-1.188.27081-1.188.761,0,1.59518,3.94.74027,3.92963,3.36628,0,1.30362-1.14647,2.10615-2.752,2.10615a4.48954,4.48954,0,0,1-2.98131-1.15735l.53172-1.06345a3.84279,3.84279,0,0,0,2.47035,1.06345c.85491,0,1.36588-.32318,1.36588-.88555,0-1.6268-3.9405-.71951-3.9405-3.31488,0-1.25123,1.07383-2.033,2.65813-2.033a4.74754,4.74754,0,0,1,2.55387.75114l-.51048,1.08322A4.36429,4.36429,0,0,0,466.203,61.43563Z"/>
      <path class="cls-3" d="M475.03326,65.98h-3.67958l-.69826,1.64755h-1.28237l3.221-7.29689h1.26112l3.18986,7.29689h-1.3135Zm-.469-1.09409L473.188,61.64417l-1.37576,3.24175Z"/>
      <path class="cls-3" d="M482.27875,60.33067v1.105h-2.31369v6.19193h-1.23V61.43563h-2.30381v-1.105Z"/>
      <path class="cls-3" d="M484.5628,60.33067v7.29689h-1.23V60.33067Z"/>
      <path class="cls-3" d="M493.611,63.97863a3.87215,3.87215,0,1,1-3.86736-3.67958A3.73362,3.73362,0,0,1,493.611,63.97863Zm-6.484,0a2.61668,2.61668,0,0,0,2.627,2.59636,2.58582,2.58582,0,1,0-2.627-2.59636Z"/>
      <path class="cls-3" d="M496.13524,60.33067l3.90887,5.24313V60.33067h1.20923v7.29689h-1.20923L496.156,62.39432v5.23324h-1.23V60.33067Z"/>
      <path class="cls-3" d="M510.855,60.33067v1.105h-2.3137v6.19193h-1.23V61.43563h-2.30381v-1.105Z"/>
      <path class="cls-3" d="M517.12059,60.33067v1.105h-3.98151v1.96976H516.704v1.105h-3.56493V66.5226h4.107v1.105h-5.337V60.33067Z"/>
      <path class="cls-3" d="M522,61.39412a2.56945,2.56945,0,1,0,0,5.13837,3.01582,3.01582,0,0,0,2.03252-.8648l.72988.8134a4.143,4.143,0,0,1-2.82516,1.19787,3.69207,3.69207,0,1,1,.042-7.37991,4.03113,4.03113,0,0,1,2.77277,1.12571l-.7195.89642A2.84905,2.84905,0,0,0,522,61.39412Z"/>
      <path class="cls-3" d="M527.24462,60.33067v3.16861h3.86687V60.33067H532.342v7.29689h-1.23048V64.60424h-3.86687v3.02332h-1.23V60.33067Z"/>
      <path class="cls-3" d="M535.47005,60.33067l3.90937,5.24313V60.33067h1.20923v7.29689h-1.20923l-3.88812-5.23324v5.23324h-1.23V60.33067Z"/>
      <path class="cls-3" d="M549.64824,63.97863a3.87216,3.87216,0,1,1-3.86736-3.67958A3.73362,3.73362,0,0,1,549.64824,63.97863Zm-6.484,0a2.61667,2.61667,0,0,0,2.627,2.59636,2.58582,2.58582,0,1,0-2.627-2.59636Z"/>
      <path class="cls-3" d="M552.19271,60.33067v6.18106h3.15823v1.11583h-4.38821V60.33067Z"/>
      <path class="cls-3" d="M563.65989,63.97863a3.87215,3.87215,0,1,1-3.86736-3.67958A3.73362,3.73362,0,0,1,563.65989,63.97863Zm-6.484,0a2.61668,2.61668,0,0,0,2.627,2.59636,2.58582,2.58582,0,1,0-2.627-2.59636Z"/>
      <path class="cls-3" d="M569.6759,64.04188h1.07333v2.68926a4.94887,4.94887,0,0,1-2.835.94782,3.69443,3.69443,0,1,1,.07264-7.37991,4.38069,4.38069,0,0,1,2.8044,1.02194l-.69875.9063a3.172,3.172,0,0,0-2.10565-.83317,2.59144,2.59144,0,1,0,.01038,5.18087,3.39617,3.39617,0,0,0,1.67869-.50109Z"/>
      <path class="cls-3" d="M573.72165,60.33067v7.29689h-1.23V60.33067Z"/>
      <path class="cls-3" d="M580.85151,60.33067v1.105H576.87v1.96976h3.56493v1.105H576.87V66.5226h4.107v1.105H575.64V60.33067Z"/>
      <path class="cls-3" d="M584.78213,61.43563c-.719,0-1.188.27081-1.188.761,0,1.59518,3.94.74027,3.92963,3.36628,0,1.30362-1.14647,2.10615-2.752,2.10615a4.48958,4.48958,0,0,1-2.98132-1.15735l.53173-1.06345a3.84277,3.84277,0,0,0,2.47035,1.06345c.85491,0,1.36588-.32318,1.36588-.88555,0-1.6268-3.9405-.71951-3.9405-3.31488,0-1.25123,1.07383-2.033,2.65813-2.033a4.74748,4.74748,0,0,1,2.55386.75114l-.51047,1.08322A4.36429,4.36429,0,0,0,584.78213,61.43563Z"/>
      <path class="cls-3" d="M427.69192,72.841v7.29689h-1.23V72.841Z"/>
      <path class="cls-3" d="M430.819,72.841l3.90937,5.24313V72.841h1.20923v7.29689h-1.20923l-3.88812-5.23324v5.23324h-1.23V72.841Z"/>
      <path class="cls-3" d="M442.84955,72.841v1.105h-2.3137v6.19193h-1.23V73.946h-2.30381V72.841Z"/>
      <path class="cls-3" d="M449.11511,72.841v1.105H445.1336v1.96976h3.56493v1.105H445.1336V79.033h4.107v1.105h-5.337V72.841Z"/>
      <path class="cls-3" d="M455.736,76.55225h1.07333v2.68926a4.949,4.949,0,0,1-2.835.94782,3.69444,3.69444,0,1,1,.07264-7.37992,4.38071,4.38071,0,0,1,2.80441,1.022l-.69876.9063a3.172,3.172,0,0,0-2.10565-.83317,2.59143,2.59143,0,1,0,.01038,5.18086,3.39616,3.39616,0,0,0,1.67869-.50108Z"/>
      <path class="cls-3" d="M463.17915,80.13793,461.84489,77.928c-.10427.00988-.21892.00988-.33356.00988h-1.73009v2.2h-1.23V72.841h2.96007c1.866,0,2.9398.90729,2.9398,2.4916a2.34422,2.34422,0,0,1-1.51166,2.36608l1.63669,2.43921Zm-1.66782-3.305c1.12571,0,1.77208-.47934,1.77208-1.46965,0-.95869-.64637-1.41728-1.77208-1.41728h-1.73009v2.88693Z"/>
      <path class="cls-3" d="M470.8007,78.49037h-3.67957l-.69826,1.64756H465.1405l3.221-7.29689h1.26112l3.18985,7.29689H471.499Zm-.469-1.09408-1.37626-3.24175-1.37576,3.24175Z"/>
      <path class="cls-3" d="M478.0462,72.841v1.105h-2.31369v6.19193h-1.23V73.946h-2.30381V72.841Z"/>
      <path class="cls-3" d="M484.31176,72.841v1.105h-3.98151v1.96976h3.56493v1.105h-3.56493V79.033h4.107v1.105h-5.337V72.841Z"/>
      <path class="cls-3" d="M492.70373,76.489a3.60844,3.60844,0,0,1-3.8046,3.64894h-2.96007V72.841h2.9917A3.58752,3.58752,0,0,1,492.70373,76.489Zm-1.24036.01087a2.48771,2.48771,0,0,0-2.55386-2.55386H487.169v5.087h1.79285A2.44574,2.44574,0,0,0,491.46337,76.49986Z"/>
      <path class="cls-3" d="M498.16825,72.841l2.40758,4.84681,2.39771-4.84681h1.4489v7.29689h-1.13609l-.01038-5.45166-2.30381,4.69064h-.80253l-2.30382-4.69064v5.45166H496.709V72.841Z"/>
      <path class="cls-3" d="M511.56416,72.841v1.105h-3.982v1.96976h3.56493v1.105h-3.56493V79.033h4.107v1.105h-5.337V72.841Z"/>
      <path class="cls-3" d="M518.17366,72.841v1.105H515.86v6.19193h-1.23V73.946h-2.30381V72.841Z"/>
      <path class="cls-3" d="M520.45771,72.841v3.16861h3.86687V72.841h1.23048v7.29689h-1.23048V77.11461h-3.86687v3.02332h-1.23V72.841Z"/>
      <path class="cls-3" d="M534.60427,76.489a3.87215,3.87215,0,1,1-3.86736-3.67958A3.73363,3.73363,0,0,1,534.60427,76.489Zm-6.484,0a2.61668,2.61668,0,0,0,2.627,2.59636,2.58581,2.58581,0,1,0-2.627-2.59636Z"/>
      <path class="cls-3" d="M542.68343,76.489a3.60844,3.60844,0,0,1-3.8046,3.64894h-2.96007V72.841h2.99169A3.58753,3.58753,0,0,1,542.68343,76.489Zm-1.24036.01087A2.48771,2.48771,0,0,0,538.8892,73.946h-1.74046v5.087h1.79285A2.44574,2.44574,0,0,0,541.44307,76.49986Z"/>
      <path class="cls-3" d="M550.83671,76.489a3.87215,3.87215,0,1,1-3.86736-3.67958A3.73363,3.73363,0,0,1,550.83671,76.489Zm-6.484,0a2.61668,2.61668,0,0,0,2.627,2.59636,2.58581,2.58581,0,1,0-2.627-2.59636Z"/>
      <path class="cls-3" d="M553.38168,72.841V79.0221h3.15823v1.11583H552.1517V72.841Z"/>
      <path class="cls-3" d="M564.84886,76.489a3.87215,3.87215,0,1,1-3.86736-3.67958A3.73363,3.73363,0,0,1,564.84886,76.489Zm-6.484,0a2.61667,2.61667,0,0,0,2.627,2.59636,2.58581,2.58581,0,1,0-2.627-2.59636Z"/>
      <path class="cls-3" d="M570.86487,76.55225h1.07333v2.68926a4.949,4.949,0,0,1-2.83505.94782,3.69444,3.69444,0,1,1,.07265-7.37992,4.3807,4.3807,0,0,1,2.8044,1.022l-.69875.9063a3.172,3.172,0,0,0-2.10565-.83317,2.59143,2.59143,0,1,0,.01038,5.18086,3.39616,3.39616,0,0,0,1.67869-.50108Z"/>
      <path class="cls-3" d="M574.91013,72.841v7.29689h-1.23V72.841Z"/>
      <path class="cls-3" d="M582.04048,72.841v1.105h-3.982v1.96976h3.56494v1.105h-3.56494V79.033h4.107v1.105h-5.337V72.841Z"/>
      <path class="cls-3" d="M585.9711,73.946c-.719,0-1.188.27081-1.188.761,0,1.59518,3.94.74027,3.92963,3.36628,0,1.30361-1.14648,2.10614-2.752,2.10614a4.48962,4.48962,0,0,1-2.98132-1.15734l.53173-1.06345a3.84277,3.84277,0,0,0,2.47035,1.06345c.85491,0,1.36588-.32319,1.36588-.88555,0-1.6268-3.9405-.71951-3.9405-3.31488,0-1.25124,1.07383-2.033,2.65813-2.033a4.74751,4.74751,0,0,1,2.55386.75114l-.51047,1.08321A4.36437,4.36437,0,0,0,585.9711,73.946Z"/>
      <path class="cls-3" d="M431.17334,91.00173h-3.67958l-.69826,1.64657h-1.28236l3.221-7.29689h1.26111l3.18986,7.29689h-1.3135Zm-.469-1.09508-1.37625-3.24174-1.37577,3.24174Z"/>
      <path class="cls-3" d="M435.36537,85.35141l3.90887,5.24411V85.35141h1.20923V92.6483h-1.20923L435.38613,87.416V92.6483h-1.23V85.35141Z"/>
      <path class="cls-3" d="M449.17738,89.00035a3.60823,3.60823,0,0,1-3.8046,3.648h-2.96007V85.35141h2.99169A3.58832,3.58832,0,0,1,449.17738,89.00035Zm-1.24036.00988a2.48771,2.48771,0,0,0-2.55387-2.55386h-1.74046v5.087h1.79284A2.44574,2.44574,0,0,0,447.937,89.01023Z"/>
      <path class="cls-3" d="M457.894,91.00173h-3.67957l-.69826,1.64657h-1.28237l3.221-7.29689h1.26112l3.18985,7.29689h-1.3135Zm-.469-1.09508-1.37626-3.24174L454.673,89.90665Z"/>
      <path class="cls-3" d="M466.67193,87.843c0,1.64755-1.05308,2.60624-2.88743,2.60624h-1.67819v2.199h-1.23V85.35141h2.90818C465.61885,85.35141,466.67193,86.2587,466.67193,87.843Zm-1.1781.03162c0-.95967-.636-1.41826-1.76171-1.41826h-1.62581v2.88792h1.62581C464.85784,89.34429,465.49383,88.86495,465.49383,87.87463Z"/>
      <path class="cls-3" d="M473.68813,87.843c0,1.64755-1.05307,2.60624-2.88743,2.60624h-1.67819v2.199h-1.23V85.35141h2.90818C472.63506,85.35141,473.68813,86.2587,473.68813,87.843Zm-1.1781.03162c0-.95967-.636-1.41826-1.76171-1.41826h-1.62581v2.88792h1.62581C471.874,89.34429,472.51,88.86495,472.51,87.87463Z"/>
      <path class="cls-3" d="M476.13921,85.35141v6.18205h3.15823V92.6483h-4.38822V85.35141Z"/>
      <path class="cls-3" d="M481.706,85.35141V92.6483h-1.23V85.35141Z"/>
      <path class="cls-3" d="M486.8765,86.41486a2.56993,2.56993,0,1,0,0,5.13935,3.01694,3.01694,0,0,0,2.03251-.86578l.72989.8134a4.144,4.144,0,0,1-2.82516,1.19885,3.69207,3.69207,0,1,1,.042-7.37991,4.02664,4.02664,0,0,1,2.77278,1.12572l-.71951.89642A2.85007,2.85007,0,0,0,486.8765,86.41486Z"/>
      <path class="cls-3" d="M495.55064,91.00173h-3.67958l-.69826,1.64657h-1.28237l3.221-7.29689h1.26112l3.18985,7.29689H496.2489Zm-.469-1.09508-1.37626-3.24174-1.37576,3.24174Z"/>
      <path class="cls-3" d="M502.79613,85.35141v1.105h-2.31369V92.6483h-1.23V86.45637h-2.30381v-1.105Z"/>
      <path class="cls-3" d="M505.08018,85.35141V92.6483h-1.23V85.35141Z"/>
      <path class="cls-3" d="M514.1284,89.00035a3.87215,3.87215,0,1,1-3.86736-3.67958A3.73423,3.73423,0,0,1,514.1284,89.00035Zm-6.484,0a2.61583,2.61583,0,0,0,2.627,2.59537,2.58533,2.58533,0,1,0-2.627-2.59537Z"/>
      <path class="cls-3" d="M516.65212,85.35141l3.90937,5.24411V85.35141h1.20923V92.6483h-1.20923L516.67337,87.416V92.6483h-1.23V85.35141Z"/>
      <path class="cls-3" d="M526.00376,86.45637c-.719,0-1.188.27179-1.188.761,0,1.59517,3.94.74026,3.92963,3.36726,0,1.30263-1.14647,2.10516-2.752,2.10516a4.48878,4.48878,0,0,1-2.98132-1.15635l.53172-1.06345a3.84792,3.84792,0,0,0,2.47035,1.06345c.85491,0,1.36588-.32319,1.36588-.88654,0-1.62582-3.9405-.71852-3.9405-3.31488,0-1.25025,1.07383-2.032,2.65814-2.032a4.75558,4.75558,0,0,1,2.55386.75014l-.51048,1.08421A4.36717,4.36717,0,0,0,526.00376,86.45637Z"/>
    </g>
    <g>
      <path class="cls-2" d="M401.05622,82.91939H377.63215l-4.446,10.48427h-8.16218l20.50453-46.45035h8.02925l20.30538,46.45035h-8.36083ZM398.07,75.95161l-8.75913-20.637-8.75914,20.637Z"/>
      <path class="cls-2" d="M198.22332,70.179c0,13.27139-10.74965,23.556-24.61848,23.556s-24.61849-10.28463-24.61849-23.556c0-13.33859,10.74965-23.42457,24.61849-23.42457S198.22332,56.90661,198.22332,70.179Zm-41.27443,0a16.65293,16.65293,0,0,0,16.72216,16.523,16.45891,16.45891,0,1,0-16.72216-16.523Z"/>
      <path class="cls-2" d="M243.47432,62.81291c0,10.48428-6.70191,16.58923-18.38109,16.58923H214.4098V93.40391h-7.83009V46.95307h18.51352C236.77241,46.95307,243.47432,52.72693,243.47432,62.81291Zm-7.49851.19865c0-6.105-4.04774-9.0245-11.21417-9.0245H214.4098V72.36815h10.35184C231.92807,72.36815,235.97581,69.31616,235.97581,63.01156Z"/>
      <path class="cls-2" d="M282.95244,46.95307v7.034H268.22128V93.40391h-7.83009V53.98706h-14.665v-7.034Z"/>
      <path class="cls-2" d="M297.481,59.83023V93.40391h-7.8301V59.83023Z"/>
      <path class="cls-2" d="M318.97831,46.95307l15.32861,30.85686,15.26239-30.85686H358.793V93.40391h-7.23314l-.06622-34.70545L336.82866,88.55908H331.719L317.054,58.69846V93.40391h-7.36558V46.95307Z"/>
      <path class="cls-2" d="M293.566,46.75436l-4.38352,2.53088V54.347l4.38352,2.53088,4.38352-2.53088V49.28524Zm2.08045,6.26309L293.566,54.21853l-2.08057-1.20108V50.6148l2.08057-1.20107,2.08045,1.20107Z"/>
    </g>
  </g>
</svg>
